<svg height="512pt" viewBox="-15 0 512 512" width="512pt" xmlns="http://www.w3.org/2000/svg">
  <path d="m35.71875 31.226562h60.832031v145.132813h-60.832031zm0 0" fill="#fce182" />
  <path d="m426.957031 473.78125v-297.421875l-185.421875-131.273437-185.421875 131.273437v297.421875zm0 0" fill="#fce182" />
  <path d="m241.535156 422.414062c-49.6875 0-90.109375-40.421874-90.109375-90.109374 0-27.980469 12.671875-53.898438 34.765625-71.113282 5.574219-4.34375 13.617188-3.347656 17.960938 2.226563 4.347656 5.578125 3.347656 13.617187-2.226563 17.964843-15.824219 12.332032-24.902343 30.890626-24.902343 50.921876 0 35.570312 28.941406 64.507812 64.511718 64.507812 35.570313 0 64.507813-28.9375 64.507813-64.507812 0-20.03125-9.074219-38.589844-24.898438-50.921876-5.578125-4.34375-6.574219-12.386718-2.230469-17.960937 4.34375-5.578125 12.386719-6.574219 17.960938-2.230469 22.097656 17.214844 34.769531 43.132813 34.769531 71.113282 0 49.6875-40.421875 90.109374-90.109375 90.109374zm0 0" fill="#ea7988" />
  <path d="m242.046875 294.078125c-7.070313 0-12.800781-5.730469-12.800781-12.800781v-30.285156c0-7.066407 5.730468-12.796876 12.800781-12.796876s12.800781 5.730469 12.800781 12.796876v30.285156c0 7.070312-5.734375 12.800781-12.800781 12.800781zm0 0" fill="#d26d7a" />
  <path d="m35.71875 31.226562h60.832031v51.027344h-60.832031zm0 0" fill="#e2ca75" />
  <path d="m100.132812 7.5h-67.996093c-6.839844 0-12.382813 5.542969-12.382813 12.382812v19.988282c0 6.839844 5.542969 12.382812 12.382813 12.382812h67.996093c6.839844 0 12.382813-5.542968 12.382813-12.382812v-19.988282c0-6.839843-5.542969-12.382812-12.382813-12.382812zm0 0" fill="#ea7988" />
  <path d="m56.113281 176.359375v72.964844c6.15625-1.265625 12-3.777344 17.238281-7.453125l168.183594-118.085938 168.179688 118.085938c5.238281 3.675781 11.085937 6.1875 17.242187 7.453125v-72.964844s-185.421875-131.273437-185.421875-131.273437zm0 0" fill="#e2ca75" />
  <path d="m468.144531 158.65625-206.015625-144.648438c-12.359375-8.679687-28.832031-8.679687-41.1875 0l-206.015625 144.648438c-7.367187 5.171875-9.144531 15.335938-3.972656 22.703125l22.457031 31.984375c5.171875 7.367188 15.335938 9.144531 22.703125 3.972656l185.421875-130.1875 185.421875 130.1875c7.367188 5.171875 17.53125 3.394532 22.703125-3.972656l22.457032-31.984375c5.171874-7.367187 3.390624-17.53125-3.972657-22.703125zm0 0" fill="#ea7988" />
  <path d="m445.019531 443.0625h-406.96875c-8.695312 0-15.742187 7.046875-15.742187 15.742188v29.953124c0 8.695313 7.046875 15.742188 15.742187 15.742188h406.96875c8.691407 0 15.738281-7.046875 15.738281-15.742188v-29.953124c0-8.695313-7.046874-15.742188-15.738281-15.742188zm0 0" fill="#5b6fa0" />
  <path d="m174.777344 200.992188v-13.4375c0-4.144532-3.355469-7.5-7.5-7.5-4.140625 0-7.5 3.355468-7.5 7.5v13.4375c0 4.140624 3.359375 7.5 7.5 7.5 4.144531 0 7.5-3.359376 7.5-7.5zm0 0" />
  <path d="m315.789062 208.492188c4.140626 0 7.5-3.359376 7.5-7.5v-13.4375c0-4.144532-3.359374-7.5-7.5-7.5-4.140624 0-7.5 3.355468-7.5 7.5v13.4375c0 4.140624 3.359376 7.5 7.5 7.5zm0 0" />
  <path d="m265.507812 204.992188c2.726563-3.117188 2.40625-7.855469-.710937-10.582032-3.121094-2.726562-7.855469-2.40625-10.582031.710938-3.082032 3.523437-7.703125 5.542968-12.679688 5.542968-4.980468 0-9.601562-2.019531-12.679687-5.542968-2.730469-3.117188-7.464844-3.4375-10.585938-.710938-3.117187 2.726563-3.4375 7.464844-.710937 10.582032 5.929687 6.785156 14.667968 10.671874 23.976562 10.671874 9.304688 0 18.042969-3.890624 23.972656-10.671874zm0 0" />
  <path d="m241.535156 429.914062c53.820313 0 97.609375-43.789062 97.609375-97.609374 0-30.308594-13.726562-58.382813-37.65625-77.03125-8.738281-6.808594-21.691406-5.1875-28.492187 3.535156-6.800782 8.734375-5.179688 21.699218 3.539062 28.492187 13.988282 10.898438 22.007813 27.300781 22.007813 45.003907 0 31.433593-25.574219 57.011718-57.007813 57.011718-31.4375 0-57.011718-25.578125-57.011718-57.011718 0-17.703126 8.023437-34.105469 22.011718-45.003907 8.828125-6.882812 10.414063-19.660156 3.535156-28.492187-6.789062-8.710938-19.773437-10.324219-28.488281-3.535156-23.929687 18.648437-37.65625 46.726562-37.65625 77.03125 0 53.820312 43.785157 97.609374 97.609375 97.609374zm-50.734375-162.808593c2.28125-1.777344 5.660157-1.359375 7.4375.921875 1.792969 2.304687 1.378907 5.644531-.921875 7.4375-17.664062 13.761718-27.792968 34.480468-27.792968 56.839844 0 39.707031 32.304687 72.007812 72.011718 72.007812 39.703125 0 72.007813-32.300781 72.007813-72.007812 0-22.359376-10.128907-43.078126-27.789063-56.839844-2.28125-1.777344-2.703125-5.152344-.925781-7.4375 1.78125-2.28125 5.164063-2.695313 7.441406-.921875 20.253907 15.785156 31.875 39.546875 31.875 65.199219 0 45.550781-37.058593 82.605468-82.609375 82.605468-45.550781 0-82.609375-37.058594-82.609375-82.605468 0-25.648438 11.617188-49.414063 31.875-65.199219zm0 0" />
  <path d="m221.746094 250.992188v30.285156c0 11.195312 9.105468 20.300781 20.300781 20.300781 11.191406 0 20.300781-9.105469 20.300781-20.300781v-30.285156c0-11.191407-9.109375-20.296876-20.300781-20.296876-11.195313 0-20.300781 9.105469-20.300781 20.296876zm25.601562 0v30.285156c0 2.921875-2.378906 5.300781-5.300781 5.300781-2.925781 0-5.300781-2.378906-5.300781-5.300781v-30.285156c0-2.921876 2.378906-5.296876 5.300781-5.296876s5.300781 2.375 5.300781 5.296876zm0 0" />
  <path d="m27.269531 217.65625c5.003907 7.125 13.234375 10.664062 21.34375 10.039062v137.160157c0 4.144531 3.359375 7.5 7.5 7.5s7.5-3.355469 7.5-7.5v-143.640625l177.921875-124.921875 177.917969 124.921875v214.347656h-355.839844v-40.707031c0-4.140625-3.359375-7.5-7.5-7.5s-7.5 3.359375-7.5 7.5v40.707031h-10.5625c-12.816406 0-23.242187 10.425781-23.242187 23.242188v29.953124c0 12.816407 10.425781 23.242188 23.242187 23.242188h406.96875c12.8125 0 23.238281-10.425781 23.238281-23.242188v-29.953124c0-12.816407-10.425781-23.242188-23.238281-23.242188h-10.5625l-.003906-207.867188c.613281.046876 1.222656.074219 1.835937.074219 7.496094 0 14.882813-3.527343 19.507813-10.117187l22.457031-31.980469c7.542969-10.738281 4.941406-25.613281-5.800781-33.152344l-60.582031-42.539062c-3.390625-2.378907-8.066406-1.558594-10.445313 1.832031-2.382812 3.386719-1.5625 8.066406 1.828125 10.445312l60.582032 42.535157c3.96875 2.789062 4.933593 8.289062 2.144531 12.257812l-22.457031 31.984375c-2.789063 3.972656-8.289063 4.933594-12.257813 2.144532l-185.421875-130.191407c-2.585938-1.8125-6.03125-1.8125-8.621094 0l-185.421875 130.191407c-3.96875 2.789062-9.46875 1.824218-12.253906-2.144532l-22.457031-31.984375c-2.789063-3.96875-1.824219-9.46875 2.144531-12.253906l206.015625-144.652344c9.738281-6.835937 22.828125-6.835937 32.566406 0l120.507813 84.613281c3.390625 2.378907 8.070312 1.5625 10.449219-1.828124 2.378906-3.390626 1.5625-8.066407-1.828126-10.449219l-120.507812-84.609375c-14.894531-10.460938-34.910156-10.460938-49.808594 0l-112.578125 79.042968v-27.554687c9.089844-1.824219 15.960938-9.867187 15.960938-19.488281v-19.988282c.003906-10.964843-8.917969-19.882812-19.878907-19.882812h-67.996093c-10.964844 0-19.882813 8.917969-19.882813 19.882812v19.988282c0 9.621094 6.871094 17.664062 15.964844 19.488281v80.796875l-17.605469 12.363281c-10.738281 7.539063-13.339843 22.410157-5.800781 33.152344zm417.75 232.90625c4.542969 0 8.238281 3.699219 8.238281 8.242188v29.953124c0 4.546876-3.695312 8.242188-8.238281 8.242188h-406.96875c-4.546875 0-8.242187-3.695312-8.242187-8.242188v-29.953124c0-4.542969 3.695312-8.242188 8.242187-8.242188zm-355.96875-353.117188-45.832031 32.183594v-69.875h45.832031zm-61.796875-57.574218v-19.988282c0-2.691406 2.191406-4.882812 4.882813-4.882812h67.996093c2.691407 0 4.882813 2.1875 4.882813 4.882812v19.988282c0 2.691406-2.191406 4.882812-4.882813 4.882812h-67.996093c-2.691407 0-4.882813-2.191406-4.882813-4.882812zm0 0" />
</svg>