<svg height="512pt" viewBox="0 -1 512 512" width="512pt" xmlns="http://www.w3.org/2000/svg">
  <path d="m293.667969 350.039062h32v128h-32zm0 0" fill="#226c8a" />
  <path d="m141.667969 102.039062c0 22.09375-17.910157 40-40 40-22.089844 0-40-17.90625-40-40 0-22.089843 17.910156-40 40-40 22.089843 0 40 17.910157 40 40zm0 0" fill="#f7931e" />
  <path d="m101.667969 143.039062c-22.601563 0-41-18.398437-41-41 0-22.597656 18.398437-41 41-41 22.601562 0 41 18.402344 41 41 0 22.601563-18.398438 41-41 41zm0-80c-21.5 0-39 17.5-39 39s17.5 39 39 39 39-17.5 39-39-17.5-39-39-39zm0 0" fill="#f8cf26" />
  <path d="m389.667969 390.039062h88v88h-88zm0 0" fill="#008fcf" />
  <path d="m261.066406 254.039062h-64l-27.699218 48h64zm0 0" fill="#6ac9cd" />
  <path d="m389.066406 254.039062 27.703125-48h-64l-27.703125 48zm0 0" fill="#4ec3c7" />
  <path d="m288.769531 206.039062h-64l-27.703125 48h64zm0 0" fill="#4ec3c7" />
  <path d="m325.066406 254.039062 27.703125-48h-64l-27.703125 48zm0 0" fill="#6ac9cd" />
  <path d="m261.066406 254.039062-27.699218 48h64l27.699218-48zm0 0" fill="#4ec3c7" />
  <path d="m297.367188 302.039062h64l27.699218-48h-64zm0 0" fill="#6ac9cd" />
  <path d="m361.367188 302.039062h64l27.699218-48h-64zm0 0" fill="#4ec3c7" />
  <path d="m333.667969 350.039062h64l27.699219-48h-64zm0 0" fill="#6ac9cd" />
  <path d="m169.367188 302.039062-27.699219 48h64l27.699219-48zm0 0" fill="#4ec3c7" />
  <path d="m416.769531 206.039062-27.703125 48h64l27.703125-48zm0 0" fill="#6ac9cd" />
  <path d="m297.367188 302.039062-27.699219 48h64l27.699219-48zm0 0" fill="#4ec3c7" />
  <path d="m233.367188 302.039062-27.699219 48h64l27.699219-48zm0 0" fill="#6ac9cd" />
  <path d="m480.769531 198.039062h-256c-2.902343 0-5.5 1.5-6.902343 4l-1.800782 3.101563-29.597656-29.601563-11.300781 11.300782 32.601562 32.601562-73 126.597656c-2.203125 3.800782-.902343 8.699219 2.898438 10.902344 1.199219.699219 2.601562 1.097656 4 1.097656h144v112h-280v16h480v-96c0-4.398437-3.601563-8-8-8h-8v-8h-16v8h-40v-8h-16v8h-8c-4.398438 0-8 3.601563-8 8v80h-48v-112h64c2.898437 0 5.5-1.5 6.898437-4l83.101563-144c2.199219-3.800781.898437-8.699218-2.898438-10.898437-1.203125-.699219-2.601562-1.101563-4-1.101563zm-155.101562 144h-42.101563l18.5-32h45.5l-18.5 32zm31.101562-48h-45.5l18.5-32h45.5zm36.898438-32h45.601562l-18.5 32h-45.5zm-54.699219-16 18.5-32h45.5l-18.5 32zm-18.5 0h-45.5l18.5-32h45.5zm-64 0h-45.5l18.5-32h45.5zm-54.800781 16h45.601562l-18.5 32h-45.5zm64 0h45.601562l-18.5 32h-45.5zm17.898437 48-18.5 32h-45.5l18.5-32zm82.402344 0h45.5l-18.5 32h-45.5zm82.5-64h-45.5l18.5-32h45.5zm-274.5 64h45.5l-18.5 32h-45.5zm223.699219 88h72v72h-72zm-80 72h-16v-112h16zm0 0" />
  <path d="m149.667969 102.039062c0-26.5-21.5-48-48-48s-48 21.5-48 48 21.5 48 48 48 48-21.5 48-48zm-48 32c-17.699219 0-32-14.300781-32-32 0-17.699218 14.300781-32 32-32s32 14.300782 32 32c0 17.699219-14.300781 32-32 32zm0 0" />
  <path d="m93.667969 6.039062h16v32h-16zm0 0" />
  <path d="m141.269531 51.085938 22.625-22.625 11.316407 11.3125-22.628907 22.625zm0 0" />
  <path d="m165.667969 94.039062h32v16h-32zm0 0" />
  <path d="m141.304688 152.957031 11.316406-11.316406 22.625 22.628906-11.3125 11.3125zm0 0" />
  <path d="m93.667969 166.039062h16v32h-16zm0 0" />
  <path d="m28.128906 164.308594 22.625-22.628906 11.316406 11.316406-22.628906 22.625zm0 0" />
  <path d="m5.667969 94.039062h32v16h-32zm0 0" />
  <path d="m28.082031 39.816406 11.316407-11.316406 22.625 22.628906-11.3125 11.3125zm0 0" />
  <path d="m445.667969 430.039062h-9.101563l7.703125-11.597656-13.300781-8.902344-16 24c-2.5 3.699219-1.5 8.601563 2.199219 11.101563 1.300781.898437 2.898437 1.300781 4.398437 1.300781h9.101563l-7.699219 11.597656 13.300781 8.902344 16-24c2.5-3.703125 1.5-8.601562-2.203125-11.101562-1.296875-.800782-2.796875-1.300782-4.398437-1.300782zm0 0" />
  <path d="m213.667969 94.039062h72v16h-72zm0 0" />
  <path d="m93.667969 214.039062h16v72h-16zm0 0" />
  <path d="m0 192.398438 16.828125-16.832032 11.3125 11.316406-16.828125 16.828126zm0 0" />
  <path d="m.53125 12.148438 11.3125-11.3125 16.335938 16.332031-11.316407 11.3125zm0 0" />
  <path d="m175.191406 17.199219 16.828125-16.828125 11.3125 11.3125-16.828125 16.828125zm0 0" />
</svg>