<svg height="512pt" viewBox="0 0 512 512" width="512pt" xmlns="http://www.w3.org/2000/svg">
  <path d="m408.917969 256c0 84.453125-68.464844 152.917969-152.917969 152.917969s-152.917969-68.464844-152.917969-152.917969 68.464844-152.917969 152.917969-152.917969 152.917969 68.464844 152.917969 152.917969zm0 0" fill="#f5be63" />
  <path d="m286.90625 388.316406c-84.457031 0-152.917969-68.464844-152.917969-152.921875 0-46.425781 20.695313-88.019531 53.355469-116.0625-49.972656 25.152344-84.261719 76.902344-84.261719 136.667969 0 84.457031 68.464844 152.917969 152.917969 152.917969 38.027344 0 72.808594-13.882813 99.558594-36.855469-20.644532 10.394531-43.960938 16.253906-68.652344 16.253906zm0 0" fill="#ebb04d" />
  <g fill="#474e57">
    <path d="m182.859375 266.8125c-4.265625 0-7.722656-3.460938-7.722656-7.726562v-13.238282c0-4.265625 3.457031-7.726562 7.722656-7.726562 4.269531 0 7.726563 3.460937 7.726563 7.726562v13.238282c0 4.265624-3.457032 7.726562-7.726563 7.726562zm0 0" />
    <path d="m329.140625 266.8125c-4.269531 0-7.726563-3.460938-7.726563-7.726562v-13.238282c0-4.265625 3.457032-7.726562 7.726563-7.726562 4.265625 0 7.722656 3.460937 7.722656 7.726562v13.238282c0 4.265624-3.457031 7.726562-7.722656 7.726562zm0 0" />
    <path d="m256 273.878906c-9.265625 0-17.964844-3.875-23.871094-10.628906-2.804687-3.214844-2.476562-8.09375.734375-10.902344 3.214844-2.808594 8.09375-2.480468 10.902344.730469 2.96875 3.398437 7.429687 5.347656 12.234375 5.347656s9.265625-1.949219 12.234375-5.347656c2.808594-3.210937 7.691406-3.539063 10.902344-.730469 3.210937 2.808594 3.539062 7.6875.734375 10.902344-5.90625 6.753906-14.605469 10.628906-23.871094 10.628906zm0 0" />
  </g>
  <path d="m256 72.253906c10.144531 0 20.097656.839844 29.800781 2.429688v-65.085938c0-5.300781-4.296875-9.597656-9.597656-9.597656h-40.40625c-5.300781 0-9.597656 4.296875-9.597656 9.597656v65.085938c9.703125-1.589844 19.65625-2.429688 29.800781-2.429688zm0 0" fill="#f6e05f" />
  <path d="m385.929688 126.070312c7.171874 7.175782 13.617187 14.804688 19.351562 22.789063l46.023438-46.019531c3.746093-3.75 3.746093-9.824219 0-13.574219l-28.570313-28.570313c-3.75-3.746093-9.824219-3.746093-13.574219 0l-46.019531 46.019532c7.984375 5.738281 15.613281 12.183594 22.789063 19.355468zm0 0" fill="#f5be63" />
  <path d="m439.746094 256c0 10.144531-.839844 20.097656-2.429688 29.800781h65.085938c5.300781 0 9.597656-4.296875 9.597656-9.597656v-40.40625c0-5.300781-4.296875-9.597656-9.597656-9.597656h-65.085938c1.589844 9.703125 2.429688 19.65625 2.429688 29.800781zm0 0" fill="#f6e05f" />
  <path d="m385.929688 385.929688c-7.175782 7.171874-14.804688 13.617187-22.789063 19.351562l46.019531 46.023438c3.75 3.746093 9.824219 3.746093 13.574219 0l28.570313-28.570313c3.746093-3.75 3.746093-9.824219 0-13.574219l-46.019532-46.019531c-5.738281 7.984375-12.183594 15.613281-19.355468 22.789063zm0 0" fill="#f5be63" />
  <path d="m256 439.746094c-10.144531 0-20.097656-.839844-29.800781-2.429688v65.085938c0 5.300781 4.296875 9.597656 9.597656 9.597656h40.40625c5.300781 0 9.597656-4.296875 9.597656-9.597656v-65.085938c-9.703125 1.589844-19.65625 2.429688-29.800781 2.429688zm0 0" fill="#f6e05f" />
  <path d="m126.070312 385.929688c-7.171874-7.175782-13.617187-14.804688-19.351562-22.789063l-46.023438 46.019531c-3.746093 3.75-3.746093 9.824219 0 13.574219l28.570313 28.570313c3.75 3.746093 9.824219 3.746093 13.574219 0l46.019531-46.019532c-7.984375-5.738281-15.613281-12.183594-22.789063-19.355468zm0 0" fill="#f5be63" />
  <path d="m72.253906 256c0-10.144531.839844-20.097656 2.429688-29.800781h-65.085938c-5.300781 0-9.597656 4.296875-9.597656 9.597656v40.40625c0 5.300781 4.296875 9.597656 9.597656 9.597656h65.085938c-1.589844-9.703125-2.429688-19.65625-2.429688-29.800781zm0 0" fill="#f6e05f" />
  <path d="m126.070312 126.070312c7.175782-7.171874 14.804688-13.617187 22.789063-19.351562l-46.019531-46.023438c-3.75-3.75-9.824219-3.75-13.574219 0l-28.570313 28.570313c-3.75 3.75-3.75 9.824219 0 13.574219l46.019532 46.019531c5.738281-7.984375 12.183594-15.613281 19.355468-22.789063zm0 0" fill="#f5be63" />
</svg>