<svg height="512pt" viewBox="0 0 512 512" width="512pt" xmlns="http://www.w3.org/2000/svg">
  <path d="m497 61c-8.402344 0-15 6.597656-15 15v15h-31v-15c0-8.402344-6.597656-15-15-15s-15 6.597656-15 15v15h-96.898438l-40.203124-61h47.101562v15c0 8.398438 6.597656 15 15 15s15-6.601562 15-15v-30c0-8.402344-6.597656-15-15-15h-180c-8.402344 0-15 6.597656-15 15v30c0 8.398438 6.597656 15 15 15s15-6.601562 15-15v-15h47.101562l-40.203124 61h-96.898438v-15c0-8.402344-6.597656-15-15-15s-15 6.597656-15 15v15h-31v-15c0-8.402344-6.597656-15-15-15s-15 6.597656-15 15v30 .597656c.300781 4.800782 3.300781 10.203125 8.402344 12.902344l172.597656 85.800781v35.699219h-90v-15c0-8.402344-6.597656-15-15-15s-15 6.597656-15 15v15h-31v-15c0-8.402344-6.597656-15-15-15s-15 6.597656-15 15v30c0 5.097656 3 10.800781 8.402344 13.5l168.398437 83.699219-54 136.300781h56.398438l76.800781-45.101562 76.800781 45.101562h56.398438l-54-136.300781 168.398437-83.699219c5.402344-2.699219 8.101563-7.800781 8.402344-12.902344 0-.296875 0-.296875 0-.597656v-30c0-8.402344-6.597656-15-15-15s-15 6.597656-15 15v15h-31v-15c0-8.402344-6.597656-15-15-15s-15 6.597656-15 15v15h-90v-35.699219l172.597656-85.800781c5.402344-2.703125 8.101563-7.800781 8.402344-12.902344 0-.296875 0-.296875 0-.601562v-29.996094c0-8.402344-6.597656-15-15-15zm-241-19 32.101562 49h-64.203124zm45 103.300781v35.699219h-51l6-4.199219zm-90-24.300781h72.300781l-27.300781 19.199219-45 31.5zm0 90h90v30h-90zm90 60v51.300781l-45-33.601562-23.699219-17.699219zm-90 21.597656 45 33.601563 6.597656 4.800781h-51.597656zm-131.398438-171.597656h101.398438v50.699219zm0 150h101.398438v50.699219zm86.398438 191.5 22.199219-57.101562 37.800781 21.601562zm33.601562-85 6.597657-16.5h99.601562l6.597657 16.5-56.398438 32.398438zm146.398438 85-59.699219-35.5 37.5-21.300781zm86.398438-191.5-101.398438 50.699219v-50.699219zm-101.398438-99.300781v-50.699219h101.398438zm0 0" fill="#5a5a5a" />
  <path d="m497 61c-8.402344 0-15 6.597656-15 15v15h-31v-15c0-8.402344-6.597656-15-15-15s-15 6.597656-15 15v15h-96.898438l-40.203124-61h47.101562v15c0 8.398438 6.597656 15 15 15s15-6.601562 15-15v-30c0-8.402344-6.597656-15-15-15h-90v42l32.101562 49h-32.101562v30h27.300781l-27.300781 19.199219v36.601562l45-31.5v35.699219h-45v30h45v30h-45v30h45v51.300781l-45-33.601562v37.5l6.597656 4.800781h-6.597656v30h49.800781l6.597657 16.5-56.398438 32.398438v34.5l76.800781 45.101562h56.398438l-54-136.300781 168.398437-83.699219c5.402344-2.699219 8.101563-7.800781 8.402344-12.902344 0-.296875 0-.296875 0-.597656v-30c0-8.402344-6.597656-15-15-15s-15 6.597656-15 15v15h-31v-15c0-8.402344-6.597656-15-15-15s-15 6.597656-15 15v15h-90v-35.699219l172.597656-85.800781c5.402344-2.703125 8.101563-7.800781 8.402344-12.902344 0-.296875 0-.296875 0-.601562v-29.996094c0-8.402344-6.597656-15-15-15zm-151 401.5-59.699219-35.5 37.5-21.300781zm86.398438-191.5-101.398438 50.699219v-50.699219zm-101.398438-99.300781v-50.699219h101.398438zm0 0" fill="#292929" />
  <path d="m451 497c0 8.398438-6.597656 15-15 15h-360c-8.402344 0-15-6.601562-15-15 0-8.402344 6.597656-15 15-15h360c8.402344 0 15 6.597656 15 15zm0 0" fill="#90e36a" />
  <path d="m451 497c0 8.398438-6.597656 15-15 15h-180v-30h180c8.402344 0 15 6.597656 15 15zm0 0" fill="#70da40" />
</svg>